<svg xmlns="http://www.w3.org/2000/svg" xmlns:xlink="http://www.w3.org/1999/xlink" width="500" zoomAndPan="magnify" viewBox="0 0 375 374.999991" height="500" preserveAspectRatio="xMidYMid meet" version="1.0"><defs><g/></defs><g fill="#004aad" fill-opacity="1"><g transform="translate(143.722569, 161.633675)"><g><path d="M 5.179688 0 L 19.179688 0 L 19.179688 -24.988281 L 37.796875 0 L 49.277344 0 L 49.277344 -49 L 35.347656 -49 L 35.347656 -24.148438 L 16.730469 -49 L 5.179688 -49 Z M 5.179688 0 "/></g></g></g><g fill="#004aad" fill-opacity="1"><g transform="translate(148.822744, 161.011718)"><g><path d="M 0 18.757812 L 0 32.757812 L 49 51.167969 L 49 36.117188 L 32.828125 30.378906 L 20.089844 25.828125 L 32.828125 21.277344 L 49 15.539062 L 49 0.351562 Z M 0 18.757812 "/></g></g></g><g fill="#004aad" fill-opacity="1"><g transform="translate(243.914564, 162.452713)"><g><path d="M 1.050781 -26.25 C 1.050781 -39.480469 -7 -47.667969 -20.160156 -47.667969 L -49 -47.667969 L -49 -33.597656 L -21.070312 -33.597656 C -15.257812 -33.597656 -12.179688 -31.148438 -12.179688 -26.25 C -12.179688 -21.347656 -15.257812 -18.898438 -21.070312 -18.898438 L -49 -18.898438 L -49 -4.761719 L -20.160156 -4.761719 C -7 -4.761719 1.050781 -13.019531 1.050781 -26.25 Z M 1.050781 -26.25 "/></g></g></g><g fill="#004aad" fill-opacity="1"><g transform="translate(220.722163, 164.246092)"><g><path d="M -5.179688 0 L -19.320312 0 L -19.320312 49 L -5.179688 49 Z M -5.179688 0 "/></g></g></g><g fill="#004aad" fill-opacity="1"><g transform="translate(236.293086, 207.644312)"><g><path d="M 0.253906 -5.523438 C 0.253906 -8.480469 -1.136719 -10.230469 -3.484375 -10.230469 C -5.457031 -10.230469 -6.609375 -8.957031 -7.257812 -6.066406 C -7.597656 -4.539062 -7.96875 -3.976562 -8.582031 -3.976562 C -9.160156 -3.976562 -9.515625 -4.488281 -9.515625 -5.285156 C -9.515625 -6.238281 -9.023438 -6.78125 -8.125 -6.78125 L -8.125 -10.011719 C -10.570312 -10.011719 -12.152344 -8.140625 -12.152344 -5.21875 C -12.152344 -2.414062 -10.757812 -0.679688 -8.515625 -0.679688 C -6.507812 -0.679688 -5.269531 -1.988281 -4.757812 -4.671875 C -4.46875 -6.117188 -4.027344 -6.816406 -3.347656 -6.816406 C -2.753906 -6.816406 -2.414062 -6.304688 -2.414062 -5.472656 C -2.414062 -4.488281 -2.941406 -3.910156 -3.859375 -3.910156 L -3.859375 -0.59375 C -1.292969 -0.59375 0.253906 -2.429688 0.253906 -5.523438 Z M 0.253906 -5.523438 "/></g></g></g><g fill="#004aad" fill-opacity="1"><g transform="translate(236.293086, 197.636395)"><g><path d="M 0 -1.257812 L 0 -4.691406 L -11.898438 -4.691406 L -11.898438 -1.257812 Z M 0 -1.257812 "/></g></g></g><g fill="#004aad" fill-opacity="1"><g transform="translate(236.293086, 192.539206)"><g><path d="M 0.253906 -7.054688 C 0.253906 -10.84375 -2.3125 -13.527344 -5.949219 -13.527344 C -9.585938 -13.527344 -12.152344 -10.84375 -12.152344 -7.054688 C -12.152344 -3.261719 -9.585938 -0.578125 -5.949219 -0.578125 C -2.3125 -0.578125 0.253906 -3.261719 0.253906 -7.054688 Z M -5.949219 -4.0625 C -7.734375 -4.0625 -8.972656 -5.300781 -8.972656 -7.054688 C -8.972656 -8.820312 -7.734375 -10.042969 -5.949219 -10.042969 C -4.164062 -10.042969 -2.921875 -8.820312 -2.921875 -7.054688 C -2.921875 -5.300781 -4.164062 -4.0625 -5.949219 -4.0625 Z M -5.949219 -4.0625 "/></g></g></g><g fill="#004aad" fill-opacity="1"><g transform="translate(236.293086, 179.268797)"><g><path d="M 0 -1.257812 L 0 -4.65625 L -6.066406 -4.65625 L 0 -9.175781 L 0 -11.964844 L -11.898438 -11.964844 L -11.898438 -8.582031 L -5.863281 -8.582031 L -11.898438 -4.0625 L -11.898438 -1.257812 Z M 0 -1.257812 "/></g></g></g></svg>